<svg xmlns="http://www.w3.org/2000/svg" id="bhy_logo" width="142.402" height="50" viewBox="0 0 142.402 50"><path id="Trazado_12" data-name="Trazado 12" d="M135.4,66.841a11.233,11.233,0,0,0-.242-4.732,15.943,15.943,0,0,0-30.42.317,10.381,10.381,0,0,0-.149,4.359c1.751,9.128,7.731,15.909,14.884,16.225.168,0,.354.019.54.019a5.234,5.234,0,0,0,.54-.019C127.668,82.675,133.629,75.932,135.4,66.841Z" transform="translate(-92.162 -47.151)" fill="#0072bb"></path><path id="Trazado_11" data-name="Trazado 11" d="M84.37,55.514A13.366,13.366,0,0,0,84,50.26,18.492,18.492,0,0,0,55.31,41.207a18.653,18.653,0,0,0-6.576,9.407,12.011,12.011,0,0,0-.3,4.638,10.478,10.478,0,1,0,9.3,16.337A14.862,14.862,0,0,0,65.8,74.477h.13l.5.019.5-.019h.13a14.628,14.628,0,0,0,6.893-2.124A10.469,10.469,0,1,0,84.37,55.514Zm-2.533.261c-1.77,9.091-7.731,15.834-14.865,16.169-.186,0-.354.019-.54.019a5.238,5.238,0,0,1-.54-.019c-7.172-.317-13.133-7.116-14.884-16.225a10.7,10.7,0,0,1,.149-4.359,15.943,15.943,0,0,1,30.42-.317A11,11,0,0,1,81.837,55.774Z" transform="translate(-38.6 -36.084)" fill="#1a1a1a"></path><path id="Trazado_10" data-name="Trazado 10" d="M750.838,189.771a6.111,6.111,0,0,1-1.285,1.9,5.821,5.821,0,0,1-1.881,1.285,5.69,5.69,0,0,1-2.31.466,5.627,5.627,0,0,1-2.31-.466,6.113,6.113,0,0,1-1.9-1.285,5.9,5.9,0,0,1-1.285-1.9,5.962,5.962,0,0,1,0-4.62,6.053,6.053,0,0,1,3.185-3.185,5.961,5.961,0,0,1,4.62,0,5.821,5.821,0,0,1,1.881,1.285,6.111,6.111,0,0,1,1.285,1.9,5.962,5.962,0,0,1,0,4.62Zm-7.47-7.023a5.109,5.109,0,0,0-1.6,1.1,5.314,5.314,0,0,0-1.062,1.621,5.114,5.114,0,0,0-.391,1.975,4.98,4.98,0,0,0,.391,1.975,5.314,5.314,0,0,0,1.062,1.621,5.16,5.16,0,0,0,1.6,1.118,4.629,4.629,0,0,0,1.975.41,4.689,4.689,0,0,0,1.975-.41,5.387,5.387,0,0,0,1.6-1.118,5.733,5.733,0,0,0,1.08-1.621,5.047,5.047,0,0,0,.391-1.975,5.115,5.115,0,0,0-.391-1.975,5.043,5.043,0,0,0-1.08-1.621,5.109,5.109,0,0,0-1.6-1.1,4.962,4.962,0,0,0-3.949,0Zm4.75,7.805c-.112.093-.242.186-.373.279a4.454,4.454,0,0,1-.391.242.747.747,0,0,1-.242.112.272.272,0,0,1-.149-.093c-.056-.056-.093-.112-.112-.13l-2.273-2.85v2.179a.746.746,0,0,1-.224.54.787.787,0,0,1-1.118-.019.789.789,0,0,1-.224-.559v-5.7a.525.525,0,0,1,.019-.149.708.708,0,0,1,.056-.186c.019-.056.056-.112.075-.168a.1.1,0,0,1,.093-.075h2.44a3.143,3.143,0,0,1,.931.149,2.438,2.438,0,0,1,.745.428,1.888,1.888,0,0,1,.5.689,2.107,2.107,0,0,1,.186.913,1.684,1.684,0,0,1-.5,1.285,2.18,2.18,0,0,1-1.192.577l1.788,2.105a.287.287,0,0,1,.075.112.184.184,0,0,1,.037.112C748.286,190.4,748.23,190.479,748.118,190.553ZM744.6,187h1.1a.66.66,0,0,0,.559-.242.816.816,0,0,0,.2-.577.735.735,0,0,0-.242-.559.764.764,0,0,0-.559-.242H744.6Z" transform="translate(-608.901 -153.272)" fill="#3c3c3b"></path><path id="Trazado_9" data-name="Trazado 9" d="M641.836,93.591l6.706,20.1,6.11-18.74a3.461,3.461,0,0,1,.745-1.229,1.7,1.7,0,0,1,1.3-.522,2.163,2.163,0,0,1,1.49.6,1.955,1.955,0,0,1,.652,1.453,11.068,11.068,0,0,1-.447,1.732c-.3.987-.708,2.235-1.229,3.726-.522,1.509-1.118,3.2-1.788,5.1s-1.341,3.856-2.049,5.831c-.708,1.993-1.4,3.968-2.105,5.942s-1.341,3.782-1.919,5.421-1.08,3.036-1.509,4.21-.689,1.956-.82,2.347a4.4,4.4,0,0,1-.726,1.285,1.608,1.608,0,0,1-1.323.577,2.341,2.341,0,0,1-1.509-.54,1.843,1.843,0,0,1-.652-1.453,6.893,6.893,0,0,1,.484-1.844c.317-.931.671-1.937,1.08-2.981.391-1.043.8-2.068,1.174-3.036s.652-1.658.82-2.049L637.7,94.914Z" transform="translate(-526.146 -81.425)" fill="#3c3c3b"></path><path id="Trazado_8" data-name="Trazado 8" d="M513,32.1a2.109,2.109,0,0,1,.633-1.546,2.056,2.056,0,0,1,1.528-.652,2.015,2.015,0,0,1,1.509.652,2.174,2.174,0,0,1,.6,1.509V45.25a7.837,7.837,0,0,1,3.111-2.608,9.314,9.314,0,0,1,4.005-.894,9.967,9.967,0,0,1,4.042.782,8.687,8.687,0,0,1,3.036,2.161,9.412,9.412,0,0,1,1.919,3.241,11.664,11.664,0,0,1,.689,4.005V67.269a2.039,2.039,0,0,1-.633,1.528,2.11,2.11,0,0,1-1.528.633,1.88,1.88,0,0,1-1.453-.633,2.01,2.01,0,0,1-.6-1.472V51.9a6.2,6.2,0,0,0-.5-2.478A6.455,6.455,0,0,0,528,47.373a6.711,6.711,0,0,0-2.012-1.4,5.769,5.769,0,0,0-2.459-.522,6.049,6.049,0,0,0-2.459.5,6.464,6.464,0,0,0-3.372,3.409,6.048,6.048,0,0,0-.5,2.459V68.964H513Z" transform="translate(-424.676 -29.9)" fill="#3c3c3b"></path><path id="Trazado_7" data-name="Trazado 7" d="M365.3,33.1h4.3V48.077a9.205,9.205,0,0,1,3.39-2.813,9.528,9.528,0,0,1,4.285-1.006,9.422,9.422,0,0,1,4.862,1.211,11.414,11.414,0,0,1,3.539,3.13,14.139,14.139,0,0,1,2.161,4.378,17.281,17.281,0,0,1,.727,4.918,19.3,19.3,0,0,1-.708,5.179,13.973,13.973,0,0,1-2.124,4.508,10.942,10.942,0,0,1-3.6,3.185A10.49,10.49,0,0,1,377,71.977a9.358,9.358,0,0,1-4.285-1.006,8.239,8.239,0,0,1-3.241-2.962v1.3a5.452,5.452,0,0,1-.149,1.248,2.022,2.022,0,0,1-.577,1.006,1.83,1.83,0,0,1-1.285.391,2.035,2.035,0,0,1-1.528-.671,2.241,2.241,0,0,1-.633-1.528Zm4.508,28.744a9.237,9.237,0,0,0,1.229,3.185,6.689,6.689,0,0,0,2.31,2.254,6.9,6.9,0,0,0,3.633.857,5.657,5.657,0,0,0,3.353-.95,7.5,7.5,0,0,0,2.18-2.4,10.617,10.617,0,0,0,1.192-3.26,16.271,16.271,0,0,0,.373-3.465,17.458,17.458,0,0,0-.373-3.484,10.294,10.294,0,0,0-1.248-3.241,6.906,6.906,0,0,0-2.291-2.347,7.211,7.211,0,0,0-7.023.037,7.026,7.026,0,0,0-2.235,2.384,10.113,10.113,0,0,0-1.155,3.26,19.47,19.47,0,0,0-.335,3.558A21.04,21.04,0,0,0,369.808,61.844Z" transform="translate(-304.49 -32.504)" fill="#3c3c3b"></path></svg>